<?xml version="1.0" encoding="UTF-8" standalone="no"?>
<!-- Created with Inkscape (http://www.inkscape.org/) -->

<svg
   width="16"
   height="16"
   viewBox="0 0 4.2333338 4.2333333"
   version="1.1"
   id="svg1"
   xml:space="preserve"
   inkscape:version="1.4 (unknown)"
   sodipodi:docname="gumdrop-symbolic16.svg"
   inkscape:export-filename="gumdrop16.png"
   inkscape:export-xdpi="96"
   inkscape:export-ydpi="96"
   xmlns:inkscape="http://www.inkscape.org/namespaces/inkscape"
   xmlns:sodipodi="http://sodipodi.sourceforge.net/DTD/sodipodi-0.dtd"
   xmlns="http://www.w3.org/2000/svg"
   xmlns:svg="http://www.w3.org/2000/svg"><sodipodi:namedview
     id="namedview1"
     pagecolor="#ffffff"
     bordercolor="#000000"
     borderopacity="0.25"
     inkscape:showpageshadow="2"
     inkscape:pageopacity="0.0"
     inkscape:pagecheckerboard="0"
     inkscape:deskcolor="#d1d1d1"
     inkscape:document-units="mm"
     inkscape:zoom="32"
     inkscape:cx="12.234375"
     inkscape:cy="12.78125"
     inkscape:window-width="2560"
     inkscape:window-height="1368"
     inkscape:window-x="0"
     inkscape:window-y="0"
     inkscape:window-maximized="1"
     inkscape:current-layer="layer1"
     showgrid="false" /><defs
     id="defs1" /><g
     inkscape:label="Layer 1"
     inkscape:groupmode="layer"
     id="layer1"
     transform="translate(201.27673,-72.707197)"><path
       id="path1-8"
       style="fill:#2e3436;fill-opacity:1;stroke:none;stroke-width:0.0345381;stroke-opacity:1"
       d="m -199.55657,72.718025 c -0.0358,-4.23e-4 -0.0719,2.46e-4 -0.10823,0.002 0,0 -0.10093,0.0071 -0.15347,0.01612 -0.11666,0.01575 -0.26839,0.06816 -0.30644,0.08517 -0.0639,0.02606 -0.12933,0.06152 -0.12933,0.06152 -0.32385,0.169713 -0.54467,0.379704 -0.72127,0.685919 -0.12911,0.223874 -0.19947,0.428013 -0.24454,0.709442 -0.0958,0.598407 -0.0699,1.359834 0.0722,2.125953 0.0136,0.07313 0.0362,0.169491 0.0503,0.214124 0,0 0.021,0.07292 0.0256,0.08114 0.007,0.0113 0.0382,0.04382 0.0382,0.04382 0.20048,0.230055 0.77467,0.247694 1.66581,0.05117 0.85722,-0.189045 1.63614,-0.482217 2.00346,-0.754062 0.19173,-0.141891 0.31527,-0.314447 0.31879,-0.445274 0,0 0.004,-0.03037 0.001,-0.04662 -0.003,-0.01089 -0.0443,-0.132504 -0.0443,-0.132504 -0.26557,-0.794596 -0.65302,-1.537956 -1.02221,-1.961269 -0.4206,-0.482248 -0.908,-0.730375 -1.4458,-0.736625 z m -0.59243,0.420348 c 0.0146,-2.14e-4 0.0274,0.0044 0.0423,0.01308 0.008,0.0044 0.0162,0.01057 0.0237,0.01869 0.007,0.0081 0.0138,0.01821 0.0171,0.03057 0.006,0.02402 0.005,0.04427 -0.007,0.06359 -0.0118,0.01932 -0.0336,0.03773 -0.0671,0.05808 -0.0659,0.03996 -0.12759,0.08432 -0.18257,0.130933 -0.055,0.04661 -0.10324,0.09547 -0.14221,0.144391 -0.0276,0.03461 -0.0607,0.08384 -0.0904,0.132611 -0.0296,0.04877 -0.0557,0.09709 -0.069,0.129898 -0.006,0.0146 -0.0136,0.02998 -0.0213,0.04301 -0.008,0.01304 -0.0152,0.02371 -0.0208,0.0289 -0.0126,0.01158 -0.0239,0.01873 -0.036,0.02199 -0.0121,0.0033 -0.0249,0.0026 -0.0407,-0.0013 -0.0232,-0.0058 -0.0424,-0.02131 -0.0543,-0.04114 -0.012,-0.01983 -0.0166,-0.04395 -0.0108,-0.06691 0.002,-0.006 0.008,-0.02117 0.016,-0.04069 0.008,-0.01952 0.0193,-0.04343 0.0306,-0.06702 0.0527,-0.110301 0.12732,-0.218342 0.21455,-0.313894 0.0872,-0.09555 0.18706,-0.178618 0.29016,-0.238967 0.0431,-0.02525 0.0707,-0.03919 0.0925,-0.04394 0.005,-0.0012 0.0105,-0.0018 0.0154,-0.0019 z"
       sodipodi:nodetypes="cccccccccccccccccccccccccccccccccccscccccc" /></g></svg>
