<?xml version="1.0" encoding="UTF-8" standalone="no"?>
<!-- Created with Inkscape (http://www.inkscape.org/) -->

<svg
   width="128"
   height="128"
   viewBox="0 0 33.866669 33.866667"
   version="1.1"
   id="svg1"
   xml:space="preserve"
   inkscape:version="1.4 (unknown)"
   sodipodi:docname="gumdrop-128.svg"
   inkscape:export-filename="gumdrop.png"
   inkscape:export-xdpi="96"
   inkscape:export-ydpi="96"
   xmlns:inkscape="http://www.inkscape.org/namespaces/inkscape"
   xmlns:sodipodi="http://sodipodi.sourceforge.net/DTD/sodipodi-0.dtd"
   xmlns:xlink="http://www.w3.org/1999/xlink"
   xmlns="http://www.w3.org/2000/svg"
   xmlns:svg="http://www.w3.org/2000/svg"><sodipodi:namedview
     id="namedview1"
     pagecolor="#ffffff"
     bordercolor="#000000"
     borderopacity="0.25"
     inkscape:showpageshadow="2"
     inkscape:pageopacity="0.0"
     inkscape:pagecheckerboard="0"
     inkscape:deskcolor="#d1d1d1"
     inkscape:document-units="mm"
     inkscape:zoom="2.8284271"
     inkscape:cx="-113.31386"
     inkscape:cy="-19.445437"
     inkscape:window-width="2560"
     inkscape:window-height="1368"
     inkscape:window-x="0"
     inkscape:window-y="0"
     inkscape:window-maximized="1"
     inkscape:current-layer="layer1"
     showgrid="false" /><defs
     id="defs1"><linearGradient
       id="linearGradient3"
       inkscape:collect="always"><stop
         style="stop-color:#c982f5;stop-opacity:0.91351694;"
         offset="0"
         id="stop3" /><stop
         style="stop-color:#d59ef3;stop-opacity:0;"
         offset="0.93529314"
         id="stop4" /></linearGradient><radialGradient
       inkscape:collect="always"
       xlink:href="#linearGradient3"
       id="radialGradient4"
       cx="-151.8658"
       cy="112.85772"
       fx="-151.8658"
       fy="112.85772"
       r="25.069271"
       gradientUnits="userSpaceOnUse"
       gradientTransform="matrix(1.6001158,-0.92382738,0.95096194,1.6469699,-16.72051,-206.29064)" /></defs><g
     inkscape:label="Layer 1"
     inkscape:groupmode="layer"
     id="layer1"
     transform="translate(201.27673,-72.707197)"><g
       id="g1"
       transform="matrix(0.2730335,0,0,0.2730335,-146.25735,53.289687)"><path
         style="fill:#9a00ff;fill-opacity:1;stroke:none;stroke-opacity:1"
         d="m -145.50377,191.2352 c -25.80148,5.69007 -42.42644,5.17941 -48.23107,-1.48151 0,0 -0.90683,-0.9411 -1.10533,-1.26838 -0.13423,-0.23778 -0.74101,-2.34956 -0.74101,-2.34956 -0.40756,-1.29226 -1.0625,-4.08197 -1.45542,-6.19936 -4.11631,-22.18187 -4.86533,-44.2278 -2.09133,-61.55379 1.30461,-8.14836 3.34195,-14.05911 7.08019,-20.541069 5.11314,-8.866004 11.50641,-14.94595 20.88319,-19.859736 0,0 1.89465,-1.026572 3.74447,-1.781089 1.10144,-0.492563 5.49498,-2.010055 8.87259,-2.466198 1.52137,-0.261136 4.44344,-0.466744 4.44344,-0.466744 16.81461,-0.80406 32.0054,6.377174 44.99505,21.270797 10.68959,12.256409 21.90703,33.778979 29.59622,56.785339 0,0 1.20882,3.52122 1.28221,3.83643 0.0704,0.47037 -0.0363,1.35019 -0.0363,1.35019 -0.10181,3.78791 -3.67838,8.78372 -9.22951,12.89196 -10.63528,7.87088 -33.18786,16.35917 -58.00741,21.8327 z m -37.59961,-82.87162 c 0.16322,-0.15001 0.38201,-0.45927 0.60303,-0.83671 0.22102,-0.37743 0.44427,-0.82304 0.6164,-1.24569 0.38682,-0.94982 1.14136,-2.34886 1.99882,-3.761 0.85746,-1.41213 1.81784,-2.837344 2.61631,-3.839543 1.12848,-1.416394 2.52572,-2.830771 4.11763,-4.180291 1.5919,-1.34952 3.37848,-2.634193 5.2856,-3.791188 0.97122,-0.589206 1.60234,-1.12204 1.94408,-1.681475 0.34173,-0.559435 0.39405,-1.145468 0.20767,-1.841072 -0.0959,-0.357977 -0.28064,-0.650527 -0.4969,-0.885623 -0.21625,-0.2351 -0.46402,-0.41275 -0.68603,-0.540931 -0.57713,-0.333218 -1.04027,-0.461787 -1.67139,-0.324283 -0.63111,0.137498 -1.4302,0.541082 -2.67923,1.272168 -2.98522,1.747317 -5.87581,4.152294 -8.40146,6.918848 -2.52565,2.766552 -4.68636,5.894684 -6.21183,9.08829 -0.32616,0.68284 -0.64094,1.37512 -0.88533,1.9404 -0.2444,0.56529 -0.41841,1.00357 -0.46305,1.17841 -0.16975,0.66482 -0.034,1.3633 0.31212,1.93741 0.34607,0.57411 0.90243,1.02386 1.57383,1.19124 0.45626,0.11373 0.82878,0.13165 1.17844,0.0373 0.34966,-0.0943 0.67646,-0.30094 1.0413,-0.63622 v -2e-5 z"
         id="path1-8"
         sodipodi:nodetypes="sscsssssccssscsssscsssssssssssssssssssccc" /><path
         style="fill:#9a00ff;fill-opacity:1;stroke:none;stroke-opacity:1"
         d="m -145.50589,191.23507 c -25.80148,5.69007 -42.42644,5.17941 -48.23107,-1.48151 0,0 -0.90683,-0.9411 -1.10533,-1.26838 -0.13423,-0.23778 -0.74101,-2.34956 -0.74101,-2.34956 -0.40756,-1.29226 -1.0625,-4.08197 -1.45542,-6.19936 -4.11631,-22.18187 -4.86533,-44.2278 -2.09133,-61.55379 1.30461,-8.14836 3.34195,-14.05911 7.08019,-20.541068 5.11314,-8.866004 11.50641,-14.94595 20.88319,-19.859736 0,0 1.89465,-1.026572 3.74447,-1.781089 1.10144,-0.492563 5.49498,-2.010055 8.87259,-2.466198 1.52137,-0.261136 4.44344,-0.466744 4.44344,-0.466744 16.81461,-0.80406 32.0054,6.377174 44.99505,21.270797 10.689593,12.256408 21.907033,33.778978 29.596223,56.785338 0,0 1.20882,3.52122 1.28221,3.83643 0.0704,0.47037 -0.0363,1.35019 -0.0363,1.35019 -0.10181,3.78791 -3.67838,8.78372 -9.22951,12.89196 -10.63528,7.87088 -33.187863,16.35917 -58.007413,21.8327 z"
         id="path1-8-3"
         sodipodi:nodetypes="sscsssssccssscssss" /><circle
         style="fill:url(#radialGradient4);fill-opacity:1;stroke-width:0.503974"
         id="path1"
         cx="-151.2594"
         cy="118.79439"
         r="47.676704" /><path
         sodipodi:type="star"
         style="fill:#d59ef3;fill-opacity:1;stroke:none;stroke-width:0.265;stroke-dasharray:none"
         id="path2-4"
         inkscape:flatsided="false"
         sodipodi:sides="4"
         sodipodi:cx="-273.75754"
         sodipodi:cy="81.79705"
         sodipodi:r1="5.2418222"
         sodipodi:r2="1.8636779"
         sodipodi:arg1="-1.5350972"
         sodipodi:arg2="-0.74969904"
         inkscape:rounded="0"
         inkscape:randomized="0"
         d="m -273.57045,76.558568 1.17693,3.968538 3.87446,1.457033 -3.96853,1.176926 -1.45704,3.874468 -1.17692,-3.968538 -3.87447,-1.457033 3.96854,-1.176926 z"
         transform="matrix(0.7330618,-0.23699361,0.23699361,0.7330618,5.6018579,61.800195)" /><path
         sodipodi:type="star"
         style="fill:#d59ef3;fill-opacity:1;stroke:none;stroke-width:0.265;stroke-dasharray:none"
         id="path2-361-3"
         inkscape:flatsided="false"
         sodipodi:sides="4"
         sodipodi:cx="-273.75754"
         sodipodi:cy="81.79705"
         sodipodi:r1="5.2418222"
         sodipodi:r2="1.8636779"
         sodipodi:arg1="-1.5350972"
         sodipodi:arg2="-0.74969904"
         inkscape:rounded="0"
         inkscape:randomized="0"
         d="m -273.57045,76.558568 1.17693,3.968538 3.87446,1.457033 -3.96853,1.176926 -1.45704,3.874468 -1.17692,-3.968538 -3.87447,-1.457033 3.96854,-1.176926 z"
         transform="matrix(0.7330618,-0.23699361,0.23699361,0.7330618,11.89184,-7.424471)" /><path
         sodipodi:type="star"
         style="fill:#d59ef3;fill-opacity:1;stroke:none;stroke-width:0.265;stroke-dasharray:none"
         id="path2-9-1"
         inkscape:flatsided="false"
         sodipodi:sides="4"
         sodipodi:cx="-273.75754"
         sodipodi:cy="81.79705"
         sodipodi:r1="5.2418222"
         sodipodi:r2="1.8636779"
         sodipodi:arg1="-1.5350972"
         sodipodi:arg2="-0.74969904"
         inkscape:rounded="0"
         inkscape:randomized="0"
         d="m -273.57045,76.558568 1.17693,3.968538 3.87446,1.457033 -3.96853,1.176926 -1.45704,3.874468 -1.17692,-3.968538 -3.87447,-1.457033 3.96854,-1.176926 z"
         transform="matrix(0.7330618,-0.23699361,0.23699361,0.7330618,25.04626,57.583919)" /><path
         sodipodi:type="star"
         style="fill:#d59ef3;fill-opacity:1;stroke:none;stroke-width:0.265;stroke-dasharray:none"
         id="path2-5-4"
         inkscape:flatsided="false"
         sodipodi:sides="4"
         sodipodi:cx="-273.75754"
         sodipodi:cy="81.79705"
         sodipodi:r1="5.2418222"
         sodipodi:r2="1.8636779"
         sodipodi:arg1="-1.5350972"
         sodipodi:arg2="-0.74969904"
         inkscape:rounded="0"
         inkscape:randomized="0"
         d="m -273.57045,76.558568 1.17693,3.968538 3.87446,1.457033 -3.96853,1.176926 -1.45704,3.874468 -1.17692,-3.968538 -3.87447,-1.457033 3.96854,-1.176926 z"
         transform="matrix(0.7330618,-0.23699361,0.23699361,0.7330618,24.55699,-29.482798)" /><path
         sodipodi:type="star"
         style="fill:#d59ef3;fill-opacity:1;stroke:none;stroke-width:0.265;stroke-dasharray:none"
         id="path2-0-9"
         inkscape:flatsided="false"
         sodipodi:sides="4"
         sodipodi:cx="-273.75754"
         sodipodi:cy="81.79705"
         sodipodi:r1="5.2418222"
         sodipodi:r2="1.8636779"
         sodipodi:arg1="-1.5350972"
         sodipodi:arg2="-0.74969904"
         inkscape:rounded="0"
         inkscape:randomized="0"
         d="m -273.57045,76.558568 1.17693,3.968538 3.87446,1.457033 -3.96853,1.176926 -1.45704,3.874468 -1.17692,-3.968538 -3.87447,-1.457033 3.96854,-1.176926 z"
         transform="matrix(0.7330618,-0.23699361,0.23699361,0.7330618,59.838974,48.588086)" /><path
         sodipodi:type="star"
         style="fill:#d59ef3;fill-opacity:1;stroke:none;stroke-width:0.265;stroke-dasharray:none"
         id="path2-6-2"
         inkscape:flatsided="false"
         sodipodi:sides="4"
         sodipodi:cx="-273.75754"
         sodipodi:cy="81.79705"
         sodipodi:r1="5.2418222"
         sodipodi:r2="1.8636779"
         sodipodi:arg1="-1.5350972"
         sodipodi:arg2="-0.74969904"
         inkscape:rounded="0"
         inkscape:randomized="0"
         d="m -273.57045,76.558568 1.17693,3.968538 3.87446,1.457033 -3.96853,1.176926 -1.45704,3.874468 -1.17692,-3.968538 -3.87447,-1.457033 3.96854,-1.176926 z"
         transform="matrix(0.7330618,-0.23699361,0.23699361,0.7330618,41.358029,-24.058841)" /><path
         sodipodi:type="star"
         style="fill:#d59ef3;fill-opacity:1;stroke:none;stroke-width:0.265;stroke-dasharray:none"
         id="path2-7-0"
         inkscape:flatsided="false"
         sodipodi:sides="4"
         sodipodi:cx="-273.75754"
         sodipodi:cy="81.79705"
         sodipodi:r1="5.2418222"
         sodipodi:r2="1.8636779"
         sodipodi:arg1="-1.5350972"
         sodipodi:arg2="-0.74969904"
         inkscape:rounded="0"
         inkscape:randomized="0"
         d="m -273.57045,76.558568 1.17693,3.968538 3.87446,1.457033 -3.96853,1.176926 -1.45704,3.874468 -1.17692,-3.968538 -3.87447,-1.457033 3.96854,-1.176926 z"
         transform="matrix(0.7330618,-0.23699361,0.23699361,0.7330618,80.608767,38.004752)" /><path
         sodipodi:type="star"
         style="fill:#d59ef3;fill-opacity:1;stroke:none;stroke-width:0.265;stroke-dasharray:none"
         id="path2-3-6"
         inkscape:flatsided="false"
         sodipodi:sides="4"
         sodipodi:cx="-273.75754"
         sodipodi:cy="81.79705"
         sodipodi:r1="5.2418222"
         sodipodi:r2="1.8636779"
         sodipodi:arg1="-1.5350972"
         sodipodi:arg2="-0.74969904"
         inkscape:rounded="0"
         inkscape:randomized="0"
         d="m -273.57045,76.558568 1.17693,3.968538 3.87446,1.457033 -3.96853,1.176926 -1.45704,3.874468 -1.17692,-3.968538 -3.87447,-1.457033 3.96854,-1.176926 z"
         transform="rotate(-17.915647,108.90598,-274.50919)" /><path
         sodipodi:type="star"
         style="fill:#d59ef3;fill-opacity:1;stroke:none;stroke-width:0.265;stroke-dasharray:none"
         id="path2-1-8"
         inkscape:flatsided="false"
         sodipodi:sides="4"
         sodipodi:cx="-273.75754"
         sodipodi:cy="81.79705"
         sodipodi:r1="5.2418222"
         sodipodi:r2="1.8636779"
         sodipodi:arg1="-1.5350972"
         sodipodi:arg2="-0.74969904"
         inkscape:rounded="0"
         inkscape:randomized="0"
         d="m -273.57045,76.558568 1.17693,3.968538 3.87446,1.457033 -3.96853,1.176926 -1.45704,3.874468 -1.17692,-3.968538 -3.87447,-1.457033 3.96854,-1.176926 z"
         transform="rotate(-17.915647,78.322105,-381.91742)" /><path
         sodipodi:type="star"
         style="fill:#d59ef3;fill-opacity:1;stroke:none;stroke-width:0.265;stroke-dasharray:none"
         id="path2-1-3"
         inkscape:flatsided="false"
         sodipodi:sides="4"
         sodipodi:cx="-273.75754"
         sodipodi:cy="81.79705"
         sodipodi:r1="5.2418222"
         sodipodi:r2="1.8636779"
         sodipodi:arg1="-1.5350972"
         sodipodi:arg2="-0.74969904"
         inkscape:rounded="0"
         inkscape:randomized="0"
         d="m -273.57045,76.558568 1.17693,3.968538 3.87446,1.457033 -3.96853,1.176926 -1.45704,3.874468 -1.17692,-3.968538 -3.87447,-1.457033 3.96854,-1.176926 z"
         transform="rotate(-17.915647,88.146135,-311.42227)" /><path
         sodipodi:type="star"
         style="fill:#d59ef3;fill-opacity:1;stroke:none;stroke-width:0.265;stroke-dasharray:none"
         id="path2-36-9"
         inkscape:flatsided="false"
         sodipodi:sides="4"
         sodipodi:cx="-273.75754"
         sodipodi:cy="81.79705"
         sodipodi:r1="5.2418222"
         sodipodi:r2="1.8636779"
         sodipodi:arg1="-1.5350972"
         sodipodi:arg2="-0.74969904"
         inkscape:rounded="0"
         inkscape:randomized="0"
         d="m -273.57045,76.558568 1.17693,3.968538 3.87446,1.457033 -3.96853,1.176926 -1.45704,3.874468 -1.17692,-3.968538 -3.87447,-1.457033 3.96854,-1.176926 z"
         transform="rotate(-17.915647,55.554045,-451.83898)" /><path
         sodipodi:type="star"
         style="fill:#d59ef3;fill-opacity:1;stroke:none;stroke-width:0.265;stroke-dasharray:none"
         id="path2-18-2"
         inkscape:flatsided="false"
         sodipodi:sides="4"
         sodipodi:cx="-273.75754"
         sodipodi:cy="81.79705"
         sodipodi:r1="5.2418222"
         sodipodi:r2="1.8636779"
         sodipodi:arg1="-1.5350972"
         sodipodi:arg2="-0.74969904"
         inkscape:rounded="0"
         inkscape:randomized="0"
         d="m -273.57045,76.558568 1.17693,3.968538 3.87446,1.457033 -3.96853,1.176926 -1.45704,3.874468 -1.17692,-3.968538 -3.87447,-1.457033 3.96854,-1.176926 z"
         transform="rotate(-17.915647,-162.12389,-352.02012)" /><path
         sodipodi:type="star"
         style="fill:#d59ef3;fill-opacity:1;stroke:none;stroke-width:0.265;stroke-dasharray:none"
         id="path2-2-6"
         inkscape:flatsided="false"
         sodipodi:sides="4"
         sodipodi:cx="-273.75754"
         sodipodi:cy="81.79705"
         sodipodi:r1="5.2418222"
         sodipodi:r2="1.8636779"
         sodipodi:arg1="-1.5350972"
         sodipodi:arg2="-0.74969904"
         inkscape:rounded="0"
         inkscape:randomized="0"
         d="m -273.57045,76.558568 1.17693,3.968538 3.87446,1.457033 -3.96853,1.176926 -1.45704,3.874468 -1.17692,-3.968538 -3.87447,-1.457033 3.96854,-1.176926 z"
         transform="rotate(-17.915647,-185.17695,-302.76216)" /><path
         sodipodi:type="star"
         style="fill:#d59ef3;fill-opacity:1;stroke:none;stroke-width:0.265;stroke-dasharray:none"
         id="path2-2-2-6"
         inkscape:flatsided="false"
         sodipodi:sides="4"
         sodipodi:cx="-273.75754"
         sodipodi:cy="81.79705"
         sodipodi:r1="5.2418222"
         sodipodi:r2="1.8636779"
         sodipodi:arg1="-1.5350972"
         sodipodi:arg2="-0.74969904"
         inkscape:rounded="0"
         inkscape:randomized="0"
         d="m -273.57045,76.558568 1.17693,3.968538 3.87446,1.457033 -3.96853,1.176926 -1.45704,3.874468 -1.17692,-3.968538 -3.87447,-1.457033 3.96854,-1.176926 z"
         transform="rotate(-17.915647,-127.22806,-257.77035)" /><path
         id="path5-8-1"
         style="fill:#d59ef3;fill-opacity:1;stroke:none;stroke-width:1;stroke-dasharray:none;stroke-opacity:1"
         d="m -168.11882,85.384656 c -0.14119,0.0021 -0.28819,0.01989 -0.44597,0.05426 -0.63111,0.137498 -1.43039,0.541187 -2.67942,1.272273 -2.98522,1.747317 -5.87539,4.152404 -8.40104,6.918959 -2.52564,2.766549 -4.68655,5.894727 -6.21203,9.088332 -0.32615,0.68284 -0.64082,1.37517 -0.88521,1.94045 -0.2444,0.56529 -0.41838,1.00338 -0.46303,1.17822 -0.16974,0.66482 -0.034,1.36324 0.31213,1.93735 0.34608,0.57411 0.90215,1.02376 1.57355,1.19114 0.45626,0.11373 0.82908,0.13208 1.17874,0.0377 0.34966,-0.0943 0.67644,-0.30137 1.04128,-0.63665 0.16322,-0.15001 0.38205,-0.4592 0.60306,-0.83664 0.22103,-0.37743 0.44386,-0.82275 0.61599,-1.2454 0.38682,-0.94982 1.14139,-2.34887 1.99884,-3.76101 0.85747,-1.41213 1.81792,-2.837364 2.61638,-3.839563 1.12848,-1.416393 2.52567,-2.831103 4.11758,-4.180624 1.59189,-1.349518 3.37886,-2.633986 5.28598,-3.790981 0.97123,-0.589208 1.60233,-1.122118 1.94406,-1.681551 0.34174,-0.559436 0.39361,-1.145627 0.20723,-1.841232 -0.0959,-0.357977 -0.28035,-0.650122 -0.49661,-0.885216 -0.21625,-0.235101 -0.46425,-0.412873 -0.68626,-0.541054 -0.43285,-0.249913 -0.80169,-0.385018 -1.22525,-0.378789 z" /></g></g></svg>
