<?xml version="1.0" encoding="UTF-8" standalone="no"?>
<!-- Created with Inkscape (http://www.inkscape.org/) -->

<svg
   width="128"
   height="128"
   viewBox="0 0 33.866669 33.866667"
   version="1.1"
   id="svg1"
   xml:space="preserve"
   inkscape:version="1.4 (unknown)"
   sodipodi:docname="com.github.regularhunter.Gumdrop.Devel.svg"
   inkscape:export-filename="gumdrop-128-dev.png"
   inkscape:export-xdpi="96"
   inkscape:export-ydpi="96"
   xmlns:inkscape="http://www.inkscape.org/namespaces/inkscape"
   xmlns:sodipodi="http://sodipodi.sourceforge.net/DTD/sodipodi-0.dtd"
   xmlns="http://www.w3.org/2000/svg"
   xmlns:svg="http://www.w3.org/2000/svg"><sodipodi:namedview
     id="namedview1"
     pagecolor="#ffffff"
     bordercolor="#000000"
     borderopacity="0.25"
     inkscape:showpageshadow="2"
     inkscape:pageopacity="0.0"
     inkscape:pagecheckerboard="0"
     inkscape:deskcolor="#d1d1d1"
     inkscape:document-units="mm"
     inkscape:zoom="5.6568542"
     inkscape:cx="32.08497"
     inkscape:cy="50.29297"
     inkscape:window-width="2560"
     inkscape:window-height="1403"
     inkscape:window-x="0"
     inkscape:window-y="0"
     inkscape:window-maximized="1"
     inkscape:current-layer="layer1"
     showgrid="false" /><defs
     id="defs1"><rect
       x="-114.5513"
       y="-40.305087"
       width="85.736697"
       height="110.13188"
       id="rect1" /></defs><g
     inkscape:label="Layer 1"
     inkscape:groupmode="layer"
     id="layer1"
     transform="translate(201.27673,-72.707197)"><path
       style="fill:#9a00ff;fill-opacity:1;stroke:none;stroke-width:0.273033;stroke-opacity:1"
       d="m -185.98475,105.5033 c -7.04467,1.55358 -11.58384,1.41416 -13.1687,-0.4045 0,0 -0.2476,-0.25695 -0.30179,-0.34631 -0.0367,-0.0649 -0.20232,-0.64151 -0.20232,-0.64151 -0.11128,-0.35283 -0.2901,-1.11451 -0.39738,-1.69263 -1.12389,-6.056394 -1.3284,-12.075672 -0.57101,-16.806247 0.35621,-2.224776 0.91247,-3.838608 1.93313,-5.6084 1.39606,-2.420716 3.14164,-4.080745 5.70181,-5.422374 0,0 0.51731,-0.280288 1.02237,-0.486297 0.30073,-0.134486 1.50031,-0.548812 2.42251,-0.673354 0.41539,-0.0713 1.21321,-0.127437 1.21321,-0.127437 4.59095,-0.219535 8.73855,1.741182 12.28516,5.80764 2.91861,3.34641 5.98135,9.222793 8.08076,15.5043 0,0 0.33005,0.961411 0.35008,1.047474 0.0192,0.128427 -0.01,0.368647 -0.01,0.368647 -0.0278,1.034226 -1.00432,2.39825 -2.51996,3.519937 -2.90379,2.149011 -9.0614,4.466601 -15.83797,5.961061 z m -10.26596,-22.626725 c 0.0446,-0.04096 0.1043,-0.125397 0.16465,-0.22845 0.0603,-0.103051 0.1213,-0.224718 0.1683,-0.340115 0.10561,-0.259333 0.31163,-0.641318 0.54574,-1.026879 0.23412,-0.385559 0.49633,-0.77469 0.71434,-1.048324 0.30812,-0.386723 0.68961,-0.772896 1.12425,-1.14136 0.43465,-0.368464 0.92244,-0.719223 1.44315,-1.035121 0.26518,-0.160873 0.43749,-0.306355 0.5308,-0.459099 0.0933,-0.152745 0.10759,-0.312751 0.0567,-0.502674 -0.0262,-0.09774 -0.0766,-0.177616 -0.13567,-0.241805 -0.059,-0.06419 -0.12669,-0.112695 -0.18731,-0.147692 -0.15758,-0.09098 -0.28403,-0.126084 -0.45634,-0.08854 -0.17232,0.03754 -0.3905,0.147734 -0.73152,0.347345 -0.81507,0.477076 -1.6043,1.133715 -2.29388,1.889077 -0.68959,0.755362 -1.27954,1.609446 -1.69604,2.481408 -0.0891,0.186438 -0.175,0.375454 -0.24173,0.529794 -0.0667,0.154343 -0.11424,0.274008 -0.12642,0.321745 -0.0463,0.181519 -0.009,0.372227 0.0852,0.528978 0.0945,0.156752 0.2464,0.279548 0.42971,0.325249 0.12458,0.03105 0.22629,0.03594 0.32176,0.01018 0.0955,-0.02575 0.18469,-0.08217 0.28431,-0.17371 v -5e-6 z"
       id="path1-8"
       sodipodi:nodetypes="sscsssssccssscsssscsssssssssssssssssssccc" /><path
       style="fill:#9a00ff;fill-opacity:1;stroke:none;stroke-width:0.273033;stroke-opacity:1"
       d="m -185.98533,105.50327 c -7.04467,1.55358 -11.58384,1.41415 -13.1687,-0.4045 0,0 -0.2476,-0.25696 -0.30179,-0.34631 -0.0367,-0.0649 -0.20232,-0.64151 -0.20232,-0.64151 -0.11128,-0.35283 -0.2901,-1.11452 -0.39738,-1.69264 -1.12389,-6.05639 -1.3284,-12.075667 -0.571,-16.806243 0.3562,-2.224775 0.91246,-3.838608 1.93312,-5.6084 1.39606,-2.420716 3.14164,-4.080745 5.70182,-5.422373 0,0 0.5173,-0.280288 1.02236,-0.486297 0.30073,-0.134486 1.50031,-0.548812 2.42252,-0.673354 0.41538,-0.0713 1.2132,-0.127437 1.2132,-0.127437 4.59095,-0.219535 8.73855,1.741182 12.28516,5.80764 2.91862,3.34641 5.98135,9.222793 8.08076,15.5043 0,0 0.33005,0.961411 0.35009,1.047473 0.0192,0.128427 -0.01,0.368648 -0.01,0.368648 -0.0278,1.034226 -1.00432,2.398249 -2.51996,3.519937 -2.90379,2.149016 -9.0614,4.466596 -15.83797,5.961056 z"
       id="path1-8-3"
       sodipodi:nodetypes="sscsssssccssscssss" /><path
       sodipodi:type="star"
       style="fill:#d59ef3;fill-opacity:1;stroke:none;stroke-width:0.265;stroke-dasharray:none"
       id="path2-4"
       inkscape:flatsided="false"
       sodipodi:sides="4"
       sodipodi:cx="-273.75754"
       sodipodi:cy="81.79705"
       sodipodi:r1="5.2418222"
       sodipodi:r2="1.8636779"
       sodipodi:arg1="-1.5350972"
       sodipodi:arg2="-0.74969904"
       inkscape:rounded="0"
       inkscape:randomized="0"
       d="m -273.57045,76.558568 1.17693,3.968538 3.87446,1.457033 -3.96853,1.176926 -1.45704,3.874468 -1.17692,-3.968538 -3.87447,-1.457033 3.96854,-1.176926 z"
       transform="matrix(0.20015043,-0.06470719,0.06470719,0.20015043,-144.72786,70.163211)" /><path
       sodipodi:type="star"
       style="fill:#d59ef3;fill-opacity:1;stroke:none;stroke-width:0.265;stroke-dasharray:none"
       id="path2-361-3"
       inkscape:flatsided="false"
       sodipodi:sides="4"
       sodipodi:cx="-273.75754"
       sodipodi:cy="81.79705"
       sodipodi:r1="5.2418222"
       sodipodi:r2="1.8636779"
       sodipodi:arg1="-1.5350972"
       sodipodi:arg2="-0.74969904"
       inkscape:rounded="0"
       inkscape:randomized="0"
       d="m -273.57045,76.558568 1.17693,3.968538 3.87446,1.457033 -3.96853,1.176926 -1.45704,3.874468 -1.17692,-3.968538 -3.87447,-1.457033 3.96854,-1.176926 z"
       transform="matrix(0.20015043,-0.06470719,0.06470719,0.20015043,-143.01048,51.262558)" /><path
       sodipodi:type="star"
       style="fill:#d59ef3;fill-opacity:1;stroke:none;stroke-width:0.265;stroke-dasharray:none"
       id="path2-9-1"
       inkscape:flatsided="false"
       sodipodi:sides="4"
       sodipodi:cx="-273.75754"
       sodipodi:cy="81.79705"
       sodipodi:r1="5.2418222"
       sodipodi:r2="1.8636779"
       sodipodi:arg1="-1.5350972"
       sodipodi:arg2="-0.74969904"
       inkscape:rounded="0"
       inkscape:randomized="0"
       d="m -273.57045,76.558568 1.17693,3.968538 3.87446,1.457033 -3.96853,1.176926 -1.45704,3.874468 -1.17692,-3.968538 -3.87447,-1.457033 3.96854,-1.176926 z"
       transform="matrix(0.20015043,-0.06470719,0.06470719,0.20015043,-139.41888,69.012026)" /><path
       sodipodi:type="star"
       style="fill:#d59ef3;fill-opacity:1;stroke:none;stroke-width:0.265;stroke-dasharray:none"
       id="path2-5-4"
       inkscape:flatsided="false"
       sodipodi:sides="4"
       sodipodi:cx="-273.75754"
       sodipodi:cy="81.79705"
       sodipodi:r1="5.2418222"
       sodipodi:r2="1.8636779"
       sodipodi:arg1="-1.5350972"
       sodipodi:arg2="-0.74969904"
       inkscape:rounded="0"
       inkscape:randomized="0"
       d="m -273.57045,76.558568 1.17693,3.968538 3.87446,1.457033 -3.96853,1.176926 -1.45704,3.874468 -1.17692,-3.968538 -3.87447,-1.457033 3.96854,-1.176926 z"
       transform="matrix(0.20015043,-0.06470719,0.06470719,0.20015043,-139.55247,45.239895)" /><path
       sodipodi:type="star"
       style="fill:#d59ef3;fill-opacity:1;stroke:none;stroke-width:0.265;stroke-dasharray:none"
       id="path2-0-9"
       inkscape:flatsided="false"
       sodipodi:sides="4"
       sodipodi:cx="-273.75754"
       sodipodi:cy="81.79705"
       sodipodi:r1="5.2418222"
       sodipodi:r2="1.8636779"
       sodipodi:arg1="-1.5350972"
       sodipodi:arg2="-0.74969904"
       inkscape:rounded="0"
       inkscape:randomized="0"
       d="m -273.57045,76.558568 1.17693,3.968538 3.87446,1.457033 -3.96853,1.176926 -1.45704,3.874468 -1.17692,-3.968538 -3.87447,-1.457033 3.96854,-1.176926 z"
       transform="matrix(0.20015043,-0.06470719,0.06470719,0.20015043,-129.91931,66.555862)" /><path
       sodipodi:type="star"
       style="fill:#d59ef3;fill-opacity:1;stroke:none;stroke-width:0.265;stroke-dasharray:none"
       id="path2-6-2"
       inkscape:flatsided="false"
       sodipodi:sides="4"
       sodipodi:cx="-273.75754"
       sodipodi:cy="81.79705"
       sodipodi:r1="5.2418222"
       sodipodi:r2="1.8636779"
       sodipodi:arg1="-1.5350972"
       sodipodi:arg2="-0.74969904"
       inkscape:rounded="0"
       inkscape:randomized="0"
       d="m -273.57045,76.558568 1.17693,3.968538 3.87446,1.457033 -3.96853,1.176926 -1.45704,3.874468 -1.17692,-3.968538 -3.87447,-1.457033 3.96854,-1.176926 z"
       transform="matrix(0.20015043,-0.06470719,0.06470719,0.20015043,-134.96522,46.720817)" /><path
       sodipodi:type="star"
       style="fill:#d59ef3;fill-opacity:1;stroke:none;stroke-width:0.265;stroke-dasharray:none"
       id="path2-7-0"
       inkscape:flatsided="false"
       sodipodi:sides="4"
       sodipodi:cx="-273.75754"
       sodipodi:cy="81.79705"
       sodipodi:r1="5.2418222"
       sodipodi:r2="1.8636779"
       sodipodi:arg1="-1.5350972"
       sodipodi:arg2="-0.74969904"
       inkscape:rounded="0"
       inkscape:randomized="0"
       d="m -273.57045,76.558568 1.17693,3.968538 3.87446,1.457033 -3.96853,1.176926 -1.45704,3.874468 -1.17692,-3.968538 -3.87447,-1.457033 3.96854,-1.176926 z"
       transform="matrix(0.20015043,-0.06470719,0.06470719,0.20015043,-124.24846,63.666257)" /><path
       sodipodi:type="star"
       style="fill:#d59ef3;fill-opacity:1;stroke:none;stroke-width:0.265;stroke-dasharray:none"
       id="path2-3-6"
       inkscape:flatsided="false"
       sodipodi:sides="4"
       sodipodi:cx="-273.75754"
       sodipodi:cy="81.79705"
       sodipodi:r1="5.2418222"
       sodipodi:r2="1.8636779"
       sodipodi:arg1="-1.5350972"
       sodipodi:arg2="-0.74969904"
       inkscape:rounded="0"
       inkscape:randomized="0"
       d="m -273.57045,76.558568 1.17693,3.968538 3.87446,1.457033 -3.96853,1.176926 -1.45704,3.874468 -1.17692,-3.968538 -3.87447,-1.457033 3.96854,-1.176926 z"
       transform="matrix(0.25979422,-0.0839896,0.0839896,0.25979422,-121.7596,58.802354)" /><path
       sodipodi:type="star"
       style="fill:#d59ef3;fill-opacity:1;stroke:none;stroke-width:0.265;stroke-dasharray:none"
       id="path2-1-8"
       inkscape:flatsided="false"
       sodipodi:sides="4"
       sodipodi:cx="-273.75754"
       sodipodi:cy="81.79705"
       sodipodi:r1="5.2418222"
       sodipodi:r2="1.8636779"
       sodipodi:arg1="-1.5350972"
       sodipodi:arg2="-0.74969904"
       inkscape:rounded="0"
       inkscape:randomized="0"
       d="m -273.57045,76.558568 1.17693,3.968538 3.87446,1.457033 -3.96853,1.176926 -1.45704,3.874468 -1.17692,-3.968538 -3.87447,-1.457033 3.96854,-1.176926 z"
       transform="matrix(0.25979422,-0.0839896,0.0839896,0.25979422,-113.14333,54.811619)" /><path
       sodipodi:type="star"
       style="fill:#d59ef3;fill-opacity:1;stroke:none;stroke-width:0.265;stroke-dasharray:none"
       id="path2-1-3"
       inkscape:flatsided="false"
       sodipodi:sides="4"
       sodipodi:cx="-273.75754"
       sodipodi:cy="81.79705"
       sodipodi:r1="5.2418222"
       sodipodi:r2="1.8636779"
       sodipodi:arg1="-1.5350972"
       sodipodi:arg2="-0.74969904"
       inkscape:rounded="0"
       inkscape:randomized="0"
       d="m -273.57045,76.558568 1.17693,3.968538 3.87446,1.457033 -3.96853,1.176926 -1.45704,3.874468 -1.17692,-3.968538 -3.87447,-1.457033 3.96854,-1.176926 z"
       transform="matrix(0.25979422,-0.0839896,0.0839896,0.25979422,-118.93413,56.57004)" /><path
       sodipodi:type="star"
       style="fill:#d59ef3;fill-opacity:1;stroke:none;stroke-width:0.265;stroke-dasharray:none"
       id="path2-36-9"
       inkscape:flatsided="false"
       sodipodi:sides="4"
       sodipodi:cx="-273.75754"
       sodipodi:cy="81.79705"
       sodipodi:r1="5.2418222"
       sodipodi:r2="1.8636779"
       sodipodi:arg1="-1.5350972"
       sodipodi:arg2="-0.74969904"
       inkscape:rounded="0"
       inkscape:randomized="0"
       d="m -273.57045,76.558568 1.17693,3.968538 3.87446,1.457033 -3.96853,1.176926 -1.45704,3.874468 -1.17692,-3.968538 -3.87447,-1.457033 3.96854,-1.176926 z"
       transform="matrix(0.25979422,-0.0839896,0.0839896,0.25979422,-107.57208,51.973628)" /><path
       sodipodi:type="star"
       style="fill:#d59ef3;fill-opacity:1;stroke:none;stroke-width:0.265;stroke-dasharray:none"
       id="path2-18-2"
       inkscape:flatsided="false"
       sodipodi:sides="4"
       sodipodi:cx="-273.75754"
       sodipodi:cy="81.79705"
       sodipodi:r1="5.2418222"
       sodipodi:r2="1.8636779"
       sodipodi:arg1="-1.5350972"
       sodipodi:arg2="-0.74969904"
       inkscape:rounded="0"
       inkscape:randomized="0"
       d="m -273.57045,76.558568 1.17693,3.968538 3.87446,1.457033 -3.96853,1.176926 -1.45704,3.874468 -1.17692,-3.968538 -3.87447,-1.457033 3.96854,-1.176926 z"
       transform="matrix(0.25979422,-0.0839896,0.0839896,0.25979422,-118.83772,35.012474)" /><path
       sodipodi:type="star"
       style="fill:#d59ef3;fill-opacity:1;stroke:none;stroke-width:0.265;stroke-dasharray:none"
       id="path2-2-6"
       inkscape:flatsided="false"
       sodipodi:sides="4"
       sodipodi:cx="-273.75754"
       sodipodi:cy="81.79705"
       sodipodi:r1="5.2418222"
       sodipodi:r2="1.8636779"
       sodipodi:arg1="-1.5350972"
       sodipodi:arg2="-0.74969904"
       inkscape:rounded="0"
       inkscape:randomized="0"
       d="m -273.57045,76.558568 1.17693,3.968538 3.87446,1.457033 -3.96853,1.176926 -1.45704,3.874468 -1.17692,-3.968538 -3.87447,-1.457033 3.96854,-1.176926 z"
       transform="matrix(0.25979422,-0.0839896,0.0839896,0.25979422,-123.28008,33.728396)" /><path
       sodipodi:type="star"
       style="fill:#d59ef3;fill-opacity:1;stroke:none;stroke-width:0.265;stroke-dasharray:none"
       id="path2-2-2-6"
       inkscape:flatsided="false"
       sodipodi:sides="4"
       sodipodi:cx="-273.75754"
       sodipodi:cy="81.79705"
       sodipodi:r1="5.2418222"
       sodipodi:r2="1.8636779"
       sodipodi:arg1="-1.5350972"
       sodipodi:arg2="-0.74969904"
       inkscape:rounded="0"
       inkscape:randomized="0"
       d="m -273.57045,76.558568 1.17693,3.968538 3.87446,1.457033 -3.96853,1.176926 -1.45704,3.874468 -1.17692,-3.968538 -3.87447,-1.457033 3.96854,-1.176926 z"
       transform="matrix(0.25979422,-0.0839896,0.0839896,0.25979422,-126.29173,39.19116)" /><path
       id="path5-8-1"
       style="fill:#d59ef3;fill-opacity:1;stroke:none;stroke-width:0.273033;stroke-dasharray:none;stroke-opacity:1"
       d="m -192.15942,76.602558 c -0.0385,5.74e-4 -0.0787,0.0054 -0.12176,0.01481 -0.17232,0.03754 -0.39055,0.147762 -0.73158,0.347373 -0.81506,0.477076 -1.60417,1.133746 -2.29376,1.889108 -0.68959,0.755361 -1.27959,1.609458 -1.69609,2.481419 -0.089,0.186438 -0.17497,0.375468 -0.2417,0.529808 -0.0667,0.154343 -0.11423,0.273956 -0.12642,0.321693 -0.0463,0.181519 -0.009,0.372211 0.0852,0.528962 0.0945,0.156751 0.24632,0.279521 0.42964,0.325221 0.12457,0.03105 0.22636,0.03606 0.32183,0.01029 0.0955,-0.02575 0.18469,-0.08228 0.28431,-0.173826 0.0446,-0.04096 0.10431,-0.125377 0.16465,-0.228431 0.0603,-0.103051 0.12119,-0.224638 0.16819,-0.340036 0.10561,-0.259333 0.31163,-0.64132 0.54575,-1.026882 0.23412,-0.385559 0.49635,-0.774695 0.71436,-1.048329 0.30811,-0.386723 0.68959,-0.772986 1.12423,-1.14145 0.43464,-0.368464 0.92255,-0.719167 1.44325,-1.035065 0.26518,-0.160874 0.43749,-0.306376 0.5308,-0.45912 0.0933,-0.152745 0.10747,-0.312795 0.0566,-0.502718 -0.0262,-0.09774 -0.0765,-0.177505 -0.13559,-0.241694 -0.0591,-0.06419 -0.12676,-0.112728 -0.18738,-0.147726 -0.11818,-0.06823 -0.21888,-0.105122 -0.33453,-0.103422 z" /><text
       xml:space="preserve"
       transform="matrix(3.9050292,0,0,3.9050292,255.98847,223.84034)"
       id="text1"
       style="font-size:10.6667px;font-family:'Liberation Sans';-inkscape-font-specification:'Liberation Sans';text-align:start;writing-mode:lr-tb;direction:ltr;white-space:pre;shape-inside:url(#rect1);fill:#ff0000;stroke-width:3.77953"><tspan
         x="-114.55078"
         y="-30.69661"
         id="tspan1">!</tspan></text></g></svg>
